<?xml version="1.0"?>
<svg version="1.1" xmlns="http://www.w3.org/2000/svg" width="175" height="50" style=""><path fill="#c22731" d="M34.152,28.444q0,0.224-0.574,0.224t-1.148-0.574t-0.574-1.4t0.504-1.498q1.064-1.456,3.556-2.072q1.792-0.448,3.584-0.448l0.224,0q0.252,0,1.372,0.084q-0.056-0.364,0.294-0.686t0.798-0.322q0.84,0,0.812,1.204q3.024,0.532,3.192,1.624q0.028,0.252,0.028,0.42q0,0.56-0.322,0.56t-0.21-0.672q-0.7-1.036-2.772-1.456q-0.504,2.268-5.264,9.856q-3.164,4.984-7.364,8.344q-4.816,3.808-9.072,3.808q-2.604,0-3.864-1.316t-1.26-2.926t0.616-2.758q1.484-2.856,4.284-4.452q2.072-1.204,3.836-1.204q1.904,0,2.982,0.924t1.078,2.324q0,1.512-1.12,2.744q-0.7,0.784-1.12,0.784q-0.112,0-0.112-0.098t0.084-0.266q1.008-1.484,1.008-2.758t-0.7-2.086q-0.812-0.868-2.198-0.868t-3.094,1.12q-2.1,1.372-3.444,4.116q-0.7,1.372-0.7,2.842t1.092,2.38t2.94,0.91q7.112,0,14.868-12.488q4.648-7.448,4.76-9.128q-1.68-0.084-1.764-0.084q-1.316,0-3.374,0.728t-2.674,1.792q-0.252,0.42-0.252,0.924t0.532,1.12t0.532,0.728z M48.54876,33.428l0.392-0.084q0.308,0,0.588,0.252t0.28,0.392t-1.736,2.702t-1.736,3.57q0,0.084,0.028,0.168q0.14,0.644,0.616,0.644q1.456,0,5.32-4.816q0.084-0.112,0.196-0.112t0.112,0.21t-0.252,0.546q-3.584,4.788-5.46,4.788q-0.252,0-0.476-0.084q-1.232-0.476-1.232-1.848q0-0.476,0.112-0.952l-1.736,1.68q-1.652,1.456-2.394,1.456t-1.414-0.476q-0.756-0.56-0.756-1.484q0-2.044,2.856-4.886t5.236-2.842q0.924,0,1.232,0.644q0.084,0.224,0.14,0.378t0.084,0.154z M40.17676,40.316q0,1.008,0.7,1.008q1.624,0,4.424-3.556l2.968-4.088q-0.224-0.392-0.728-0.392q-1.708,0-4.536,2.646t-2.828,4.382z M58.89952,30.642q0.378,0.266,0.378,0.63t-0.35,0.63t-0.77,0.266t-0.77-0.308t-0.35-0.7q0-0.784,1.064-0.784q0.42,0,0.798,0.266z M53.03352,42.108q-1.428,0-1.428-1.848q0-1.512,1.652-4.186t2.66-2.702q0.28,0,0.63,0.224t0.35,0.448q-0.14,0.196-0.336,0.434t-0.42,0.518t-0.616,0.798t-0.756,0.994q-2.1,2.716-2.1,3.738t0.7,1.022q0.588,0,1.596-0.644q2.352-1.456,3.724-3.192q0.504-0.644,0.686-0.644t0.182,0.224t-0.644,0.896t-1.022,1.064t-0.518,0.518t-0.518,0.476t-0.574,0.49t-0.56,0.42t-0.644,0.406t-0.644,0.294q-0.588,0.252-1.4,0.252z M70.14628,35.472q0,2.268-2.59,4.298t-4.494,2.03q-1.26,0-1.834-0.168t-1.274-1.008q-0.476,0.392-1.288,2.002t-0.812,2.758q0,0.532,0.532,1.4q0.056,0.14-0.084,0.238t-0.21,0.098t-0.126-0.028q-1.176-0.644-1.176-2.506t3.094-6.44t4.27-4.97q0.28-0.056,0.364-0.056q0.476,0,0.476,1.036q0.28-0.28,1.148-0.532q1.064-0.28,1.512-0.28q1.008,0,1.75,0.574t0.742,1.554z M68.71828,35.192q0-1.064-1.26-1.064t-2.296,0.532q-0.476,0.224-2.632,2.464t-2.156,2.884q0,0.504,0.77,0.756t1.554,0.252q1.54,0,3.78-1.75t2.24-4.074z M79.22304,41.968q-0.14,0.028-0.602,0.028t-0.924-0.364t-0.462-0.938t0.21-1.274t0.294-1.064q-3.22,3.752-5.04,3.752q-1.148,0-1.26-1.428l0-0.196q0-1.204,1.456-3.248q-0.812,0.728-1.652,1.68q-0.112,0.112-0.28,0.112q-0.112,0-0.112-0.14t0.252-0.476l3.864-4.536q0.728-0.84,1.484-0.84t0.756,0.504q0,0.196-0.168,0.364q-1.12,1.036-2.814,3.444t-1.694,3.556q0,0.504,0.336,0.504q1.176,0,3.416-2.324q0.784-0.784,2.912-3.458t2.8-2.674q1.008,0,1.008,0.784q0,0.28-1.176,1.624q-1.596,1.932-2.436,3.15t-0.84,1.974t0.42,0.756q0.196,0,0.448-0.112q1.932-0.84,4.62-3.92q0.168-0.196,0.336-0.196t0.168,0.182t-0.196,0.406q-1.204,1.4-2.828,2.814t-2.296,1.554z M90.2318,41.94q-2.1,0-2.1-2.324q0-1.176,0.616-2.576t1.344-2.352q-0.14,0.028-0.364,0.028q-0.672,0-1.12-0.952l-2.072,2.688q-1.736,2.156-2.016,2.156q-0.14,0-0.14-0.112q0-0.28,0.476-0.812q2.436-2.828,3.444-4.788q0.644-2.436,1.624-2.436q0.644,0,0.644,0.56t-0.7,1.428l-0.672,0.896q0,0.588,0.868,0.588q0.504,0,1.12-0.364l0.728-0.448q0.056-0.028,0.28-0.028t0.476,0.28t0.168,0.504l-1.932,2.436q-1.792,2.296-1.792,3.626t1.232,1.33q1.288,0,3.164-1.372q1.12-0.812,2.044-1.82q0.868-1.008,0.952-1.008q0.196,0,0.196,0.21t-0.252,0.49l-0.896,1.008q-0.756,0.784-1.68,1.512q-2.212,1.652-3.64,1.652z M104.35332,39.924q0-3.024,1.792-5.992q-2.072-1.316-2.072-3.892q0-3.108,2.744-5.516q3.08-2.716,7.952-2.716q2.24,0,4.816,0.644q0.588,0.14,5.012,2.17t6.356,2.03q1.288,0,1.932-0.728q0.336-0.364,0.336-0.784t-0.364-0.756q-0.196-0.28-0.196-0.364t0.154-0.084t0.532,0.49t0.378,1.148t-0.882,1.26t-2.226,0.602q-2.1,0-6.524-2.03t-5.558-2.254t-2.59-0.224q-5.796,0-9.128,3.752q-0.392,0.42-0.924,1.694t-0.532,2.45q0,1.624,1.148,2.52q1.456-2.128,3.444-3.388t4.032-1.26q2.52,0,2.52,1.96q0,2.352-2.758,5.11t-5.11,2.758q-1.512,0-1.512-1.288q0-0.448,0.238-0.784t0.574-0.252l-0.056,0.644q0,0.42,1.288,0.42q1.904,0,4.018-1.96t2.562-3.836q0.112-0.42,0.112-0.756q0-1.26-1.61-1.26t-3.332,1.232t-3.234,3.248q0.112,0.056,0.868,0.224l1.68,0.056q1.232,0.056,1.232,0.28q0,0.392-1.176,0.392l-0.168,0q-1.708,0-2.8-0.42q-2.156,3.304-2.156,6.076q0,3.584,2.772,3.584q3.136,0,6.524-4.368l5.488-8.176q3.08-4.48,5.348-4.592l1.064,0.252q0.504,0.28,0.504,0.84t-0.28,0.56l-0.896-0.14q-1.932,0-4.956,4.172l-5.572,7.784q-3.584,4.172-6.86,4.172q-2.24,0-3.094-1.204t-0.854-3.5z M130.62208,35.864q0,0.98-1.876,3.276q-2.212,2.716-3.78,2.716l-0.448,0q-0.728,0-1.148-0.756q-0.336-0.532-0.336-1.176q0-1.68,2.45-4.718t3.962-3.038q1.428,0,1.428,1.512q0,0.392-0.14,1.008q0.028,0.084,0.532,0.084t1.54-0.532q-0.028,0.476-2.212,1.372q0.028,0.112,0.028,0.252z M128.80208,34.408q-0.952,0-2.702,2.24t-1.75,3.304t0.672,1.064q1.204,0,3.052-2.184t1.848-3.136q-0.448-0.252-1.12-1.288z M140.25884,41.968q-0.14,0.028-0.602,0.028t-0.924-0.364t-0.462-0.938t0.21-1.274t0.294-1.064q-3.22,3.752-5.04,3.752q-1.148,0-1.26-1.428l0-0.196q0-1.204,1.456-3.248q-0.812,0.728-1.652,1.68q-0.112,0.112-0.28,0.112q-0.112,0-0.112-0.14t0.252-0.476l3.864-4.536q0.728-0.84,1.484-0.84t0.756,0.504q0,0.196-0.168,0.364q-1.12,1.036-2.814,3.444t-1.694,3.556q0,0.504,0.336,0.504q1.176,0,3.416-2.324q0.784-0.784,2.912-3.458t2.8-2.674q1.008,0,1.008,0.784q0,0.28-1.176,1.624q-1.596,1.932-2.436,3.15t-0.84,1.974t0.42,0.756q0.196,0,0.448-0.112q1.932-0.84,4.62-3.92q0.168-0.196,0.336-0.196t0.168,0.182t-0.196,0.406q-1.204,1.4-2.828,2.814t-2.296,1.554z M151.2676,41.94q-2.1,0-2.1-2.324q0-1.176,0.616-2.576t1.344-2.352q-0.14,0.028-0.364,0.028q-0.672,0-1.12-0.952l-2.072,2.688q-1.736,2.156-2.016,2.156q-0.14,0-0.14-0.112q0-0.28,0.476-0.812q2.436-2.828,3.444-4.788q0.644-2.436,1.624-2.436q0.644,0,0.644,0.56t-0.7,1.428l-0.672,0.896q0,0.588,0.868,0.588q0.504,0,1.12-0.364l0.728-0.448q0.056-0.028,0.28-0.028t0.476,0.28t0.168,0.504l-1.932,2.436q-1.792,2.296-1.792,3.626t1.232,1.33q1.288,0,3.164-1.372q1.12-0.812,2.044-1.82q0.868-1.008,0.952-1.008q0.196,0,0.196,0.21t-0.252,0.49l-0.896,1.008q-0.756,0.784-1.68,1.512q-2.212,1.652-3.64,1.652z"/><path fill="#" d=""/></svg>
